<?xml version="1.0" encoding="UTF-8" standalone="no" ?>
<!DOCTYPE svg PUBLIC "-//W3C//DTD SVG 1.1//EN" "http://www.w3.org/Graphics/SVG/1.1/DTD/svg11.dtd">
<svg xmlns="http://www.w3.org/2000/svg" xmlns:xlink="http://www.w3.org/1999/xlink" version="1.1" width="400" height="400" viewBox="0 0 400 400" xml:space="preserve">
<desc>Created with Fabric.js 3.6.2</desc>
<defs>
</defs>
<g transform="matrix(4.17 0 0 4.17 200 231.25)" id="surface1"  >
<path style="stroke: none; stroke-width: 1; stroke-dasharray: none; stroke-linecap: butt; stroke-dashoffset: 0; stroke-linejoin: miter; stroke-miterlimit: 4; fill: rgb(229,57,53); fill-rule: nonzero; opacity: 1;"  transform=" translate(-24, -31.5)" d="M 24 43 L 16 20 L 32 20 Z" stroke-linecap="round" />
</g>
<g transform="matrix(4.17 0 0 4.17 237.5 231.25)" id="surface1"  >
<path style="stroke: none; stroke-width: 1; stroke-dasharray: none; stroke-linecap: butt; stroke-dashoffset: 0; stroke-linejoin: miter; stroke-miterlimit: 4; fill: rgb(255,112,67); fill-rule: nonzero; opacity: 1;"  transform=" translate(-33, -31.5)" d="M 24 43 L 42 20 L 32 20 Z" stroke-linecap="round" />
</g>
<g transform="matrix(4.17 0 0 4.17 254.17 152.08)" id="surface1"  >
<path style="stroke: none; stroke-width: 1; stroke-dasharray: none; stroke-linecap: butt; stroke-dashoffset: 0; stroke-linejoin: miter; stroke-miterlimit: 4; fill: rgb(229,57,53); fill-rule: nonzero; opacity: 1;"  transform=" translate(-37, -12.5)" d="M 37 5 L 42 20 L 32 20 Z" stroke-linecap="round" />
</g>
<g transform="matrix(4.17 0 0 4.17 243.75 231.25)" id="surface1"  >
<path style="stroke: none; stroke-width: 1; stroke-dasharray: none; stroke-linecap: butt; stroke-dashoffset: 0; stroke-linejoin: miter; stroke-miterlimit: 4; fill: rgb(255,167,38); fill-rule: nonzero; opacity: 1;"  transform=" translate(-34.5, -31.5)" d="M 24 43 L 42 20 L 45 28 Z" stroke-linecap="round" />
</g>
<g transform="matrix(4.17 0 0 4.17 162.5 231.25)" id="surface1"  >
<path style="stroke: none; stroke-width: 1; stroke-dasharray: none; stroke-linecap: butt; stroke-dashoffset: 0; stroke-linejoin: miter; stroke-miterlimit: 4; fill: rgb(255,112,67); fill-rule: nonzero; opacity: 1;"  transform=" translate(-15, -31.5)" d="M 24 43 L 6 20 L 16 20 Z" stroke-linecap="round" />
</g>
<g transform="matrix(4.17 0 0 4.17 145.83 152.08)" id="surface1"  >
<path style="stroke: none; stroke-width: 1; stroke-dasharray: none; stroke-linecap: butt; stroke-dashoffset: 0; stroke-linejoin: miter; stroke-miterlimit: 4; fill: rgb(229,57,53); fill-rule: nonzero; opacity: 1;"  transform=" translate(-11, -12.5)" d="M 11 5 L 6 20 L 16 20 Z" stroke-linecap="round" />
</g>
<g transform="matrix(4.17 0 0 4.17 156.25 231.25)" id="surface1"  >
<path style="stroke: none; stroke-width: 1; stroke-dasharray: none; stroke-linecap: butt; stroke-dashoffset: 0; stroke-linejoin: miter; stroke-miterlimit: 4; fill: rgb(255,167,38); fill-rule: nonzero; opacity: 1;"  transform=" translate(-13.5, -31.5)" d="M 24 43 L 6 20 L 3 28 Z" stroke-linecap="round" />
</g>
</svg>