<?xml version="1.0" encoding="UTF-8" standalone="no" ?>
<!DOCTYPE svg PUBLIC "-//W3C//DTD SVG 1.1//EN" "http://www.w3.org/Graphics/SVG/1.1/DTD/svg11.dtd">
<svg xmlns="http://www.w3.org/2000/svg" xmlns:xlink="http://www.w3.org/1999/xlink" version="1.1" width="400" height="400" viewBox="0 0 400 400" xml:space="preserve">
<desc>Created with Fabric.js 3.6.2</desc>
<defs>
</defs>
<g transform="matrix(0.4 0 0 0.4 200 200)" id="图层_1"  >
<circle style="stroke: none; stroke-width: 1; stroke-dasharray: none; stroke-linecap: butt; stroke-dashoffset: 0; stroke-linejoin: miter; stroke-miterlimit: 4; fill: rgb(248,182,45); fill-rule: nonzero; opacity: 1;"  cx="0" cy="0" r="84.8" />
</g>
<g transform="matrix(0.4 0 0 0.4 200.04 199.99)" id="图层_1"  >
<path style="stroke: none; stroke-width: 1; stroke-dasharray: none; stroke-linecap: butt; stroke-dashoffset: 0; stroke-linejoin: miter; stroke-miterlimit: 4; fill: rgb(35,24,21); fill-rule: nonzero; opacity: 1;"  transform=" translate(-250.09, -249.97)" d="M 327.3 250 c -0.26 31.93 -20.27 61.69 -50.61 72.59 a 78.28 78.28 0 0 1 -86.62 -23.7 c -20.52 -24.83 -22.88 -61.14 -6.38 -88.66 s 49.76 -42.55 81.4 -36.08 A 78.17 78.17 0 0 1 327.3 250 c 0.08 9.65 15.08 9.67 15 0 a 93.46 93.46 0 0 0 -61 -86.83 c -36.08 -13.29 -78.52 -1.52 -102.67 28.34 s -27.79 72.65 -7.9 105.83 c 20 33.39 59.57 50.62 97.68 43.11 C 311.16 332 342 293.16 342.3 250 C 342.38 240.35 327.38 240.34 327.3 250 Z" stroke-linecap="round" />
</g>
<g transform="matrix(0.4 0 0 0.4 200 146.16)" id="图层_1"  >
<path style="stroke: none; stroke-width: 1; stroke-dasharray: none; stroke-linecap: butt; stroke-dashoffset: 0; stroke-linejoin: miter; stroke-miterlimit: 4; fill: rgb(35,24,21); fill-rule: nonzero; opacity: 1;"  transform=" translate(-250, -115.39)" d="M 257.5 131.39 v -32 c 0 -9.65 -15 -9.67 -15 0 v 32 c 0 9.65 15 9.67 15 0 Z" stroke-linecap="round" />
</g>
<g transform="matrix(0.4 0 0 0.4 173.08 153.37)" id="图层_1"  >
<line style="stroke: none; stroke-width: 1; stroke-dasharray: none; stroke-linecap: butt; stroke-dashoffset: 0; stroke-linejoin: miter; stroke-miterlimit: 4; fill: rgb(35,24,21); fill-rule: nonzero; opacity: 1;"  x1="7.989999999999995" y1="13.844999999999999" x2="-7.989999999999995" y2="-13.844999999999999" />
</g>
<g transform="matrix(0.4 0 0 0.4 173.07 153.37)" id="图层_1"  >
<path style="stroke: none; stroke-width: 1; stroke-dasharray: none; stroke-linecap: butt; stroke-dashoffset: 0; stroke-linejoin: miter; stroke-miterlimit: 4; fill: rgb(35,24,21); fill-rule: nonzero; opacity: 1;"  transform=" translate(-182.67, -133.43)" d="M 197.17 143.49 l -16 -27.69 c -4.83 -8.36 -17.79 -0.81 -13 7.57 l 16 27.69 c 4.83 8.36 17.79 0.81 13 -7.57 Z" stroke-linecap="round" />
</g>
<g transform="matrix(0.4 0 0 0.4 153.37 173.08)" id="图层_1"  >
<line style="stroke: none; stroke-width: 1; stroke-dasharray: none; stroke-linecap: butt; stroke-dashoffset: 0; stroke-linejoin: miter; stroke-miterlimit: 4; fill: rgb(35,24,21); fill-rule: nonzero; opacity: 1;"  x1="13.844999999999999" y1="7.989999999999995" x2="-13.844999999999999" y2="-7.989999999999995" />
</g>
<g transform="matrix(0.4 0 0 0.4 153.37 173.09)" id="图层_1"  >
<path style="stroke: none; stroke-width: 1; stroke-dasharray: none; stroke-linecap: butt; stroke-dashoffset: 0; stroke-linejoin: miter; stroke-miterlimit: 4; fill: rgb(35,24,21); fill-rule: nonzero; opacity: 1;"  transform=" translate(-133.43, -182.72)" d="M 151.06 184.22 l -27.69 -16 c -8.38 -4.84 -15.94 8.12 -7.57 13 l 27.69 16 c 8.38 4.84 15.94 -8.12 7.57 -13 Z" stroke-linecap="round" />
</g>
<g transform="matrix(0.4 0 0 0.4 146.16 200)" id="图层_1"  >
<line style="stroke: none; stroke-width: 1; stroke-dasharray: none; stroke-linecap: butt; stroke-dashoffset: 0; stroke-linejoin: miter; stroke-miterlimit: 4; fill: rgb(35,24,21); fill-rule: nonzero; opacity: 1;"  x1="15.984999999999992" y1="0" x2="-15.984999999999992" y2="0" />
</g>
<g transform="matrix(0.4 0 0 0.4 146.16 200)" id="图层_1"  >
<path style="stroke: none; stroke-width: 1; stroke-dasharray: none; stroke-linecap: butt; stroke-dashoffset: 0; stroke-linejoin: miter; stroke-miterlimit: 4; fill: rgb(35,24,21); fill-rule: nonzero; opacity: 1;"  transform=" translate(-115.39, -250)" d="M 131.39 242.5 h -32 c -9.65 0 -9.67 15 0 15 h 32 c 9.65 0 9.67 -15 0 -15 Z" stroke-linecap="round" />
</g>
<g transform="matrix(0.4 0 0 0.4 153.37 226.92)" id="图层_1"  >
<line style="stroke: none; stroke-width: 1; stroke-dasharray: none; stroke-linecap: butt; stroke-dashoffset: 0; stroke-linejoin: miter; stroke-miterlimit: 4; fill: rgb(35,24,21); fill-rule: nonzero; opacity: 1;"  x1="13.844999999999999" y1="-7.990000000000009" x2="-13.844999999999999" y2="7.990000000000009" />
</g>
<g transform="matrix(0.4 0 0 0.4 153.37 226.93)" id="图层_1"  >
<path style="stroke: none; stroke-width: 1; stroke-dasharray: none; stroke-linecap: butt; stroke-dashoffset: 0; stroke-linejoin: miter; stroke-miterlimit: 4; fill: rgb(35,24,21); fill-rule: nonzero; opacity: 1;"  transform=" translate(-133.43, -317.33)" d="M 143.49 302.83 l -27.69 16 c -8.36 4.83 -0.81 17.79 7.57 13 l 27.69 -16 c 8.36 -4.83 0.81 -17.79 -7.57 -13 Z" stroke-linecap="round" />
</g>
<g transform="matrix(0.4 0 0 0.4 173.08 246.63)" id="图层_1"  >
<line style="stroke: none; stroke-width: 1; stroke-dasharray: none; stroke-linecap: butt; stroke-dashoffset: 0; stroke-linejoin: miter; stroke-miterlimit: 4; fill: rgb(35,24,21); fill-rule: nonzero; opacity: 1;"  x1="7.989999999999995" y1="-13.844999999999999" x2="-7.989999999999995" y2="13.844999999999999" />
</g>
<g transform="matrix(0.4 0 0 0.4 173.09 246.63)" id="图层_1"  >
<path style="stroke: none; stroke-width: 1; stroke-dasharray: none; stroke-linecap: butt; stroke-dashoffset: 0; stroke-linejoin: miter; stroke-miterlimit: 4; fill: rgb(35,24,21); fill-rule: nonzero; opacity: 1;"  transform=" translate(-182.72, -366.57)" d="M 184.22 348.94 l -16 27.69 c -4.84 8.38 8.12 15.94 13 7.57 l 16 -27.69 c 4.84 -8.38 -8.12 -15.94 -13 -7.57 Z" stroke-linecap="round" />
</g>
<g transform="matrix(0.4 0 0 0.4 200 253.84)" id="图层_1"  >
<line style="stroke: none; stroke-width: 1; stroke-dasharray: none; stroke-linecap: butt; stroke-dashoffset: 0; stroke-linejoin: miter; stroke-miterlimit: 4; fill: rgb(35,24,21); fill-rule: nonzero; opacity: 1;"  x1="0" y1="-15.984999999999985" x2="0" y2="15.984999999999985" />
</g>
<g transform="matrix(0.4 0 0 0.4 200 253.84)" id="图层_1"  >
<path style="stroke: none; stroke-width: 1; stroke-dasharray: none; stroke-linecap: butt; stroke-dashoffset: 0; stroke-linejoin: miter; stroke-miterlimit: 4; fill: rgb(35,24,21); fill-rule: nonzero; opacity: 1;"  transform=" translate(-250, -384.61)" d="M 242.5 368.61 v 32 c 0 9.65 15 9.67 15 0 v -32 c 0 -9.65 -15 -9.67 -15 0 Z" stroke-linecap="round" />
</g>
<g transform="matrix(0.4 0 0 0.4 226.92 246.63)" id="图层_1"  >
<line style="stroke: none; stroke-width: 1; stroke-dasharray: none; stroke-linecap: butt; stroke-dashoffset: 0; stroke-linejoin: miter; stroke-miterlimit: 4; fill: rgb(35,24,21); fill-rule: nonzero; opacity: 1;"  x1="-7.990000000000009" y1="-13.844999999999999" x2="7.990000000000009" y2="13.844999999999999" />
</g>
<g transform="matrix(0.4 0 0 0.4 226.93 246.63)" id="图层_1"  >
<path style="stroke: none; stroke-width: 1; stroke-dasharray: none; stroke-linecap: butt; stroke-dashoffset: 0; stroke-linejoin: miter; stroke-miterlimit: 4; fill: rgb(35,24,21); fill-rule: nonzero; opacity: 1;"  transform=" translate(-317.33, -366.57)" d="M 302.83 356.51 l 16 27.69 c 4.83 8.36 17.79 0.81 13 -7.57 l -16 -27.69 c -4.83 -8.36 -17.79 -0.81 -13 7.57 Z" stroke-linecap="round" />
</g>
<g transform="matrix(0.4 0 0 0.4 246.63 226.92)" id="图层_1"  >
<line style="stroke: none; stroke-width: 1; stroke-dasharray: none; stroke-linecap: butt; stroke-dashoffset: 0; stroke-linejoin: miter; stroke-miterlimit: 4; fill: rgb(35,24,21); fill-rule: nonzero; opacity: 1;"  x1="-13.844999999999999" y1="-7.990000000000009" x2="13.844999999999999" y2="7.990000000000009" />
</g>
<g transform="matrix(0.4 0 0 0.4 246.63 226.91)" id="图层_1"  >
<path style="stroke: none; stroke-width: 1; stroke-dasharray: none; stroke-linecap: butt; stroke-dashoffset: 0; stroke-linejoin: miter; stroke-miterlimit: 4; fill: rgb(35,24,21); fill-rule: nonzero; opacity: 1;"  transform=" translate(-366.57, -317.28)" d="M 348.94 315.78 l 27.69 16 c 8.38 4.84 15.94 -8.12 7.57 -13 l -27.69 -16 c -8.38 -4.84 -15.94 8.12 -7.57 13 Z" stroke-linecap="round" />
</g>
<g transform="matrix(0.4 0 0 0.4 253.84 200)" id="图层_1"  >
<line style="stroke: none; stroke-width: 1; stroke-dasharray: none; stroke-linecap: butt; stroke-dashoffset: 0; stroke-linejoin: miter; stroke-miterlimit: 4; fill: rgb(35,24,21); fill-rule: nonzero; opacity: 1;"  x1="-15.984999999999985" y1="0" x2="15.984999999999985" y2="0" />
</g>
<g transform="matrix(0.4 0 0 0.4 253.84 200)" id="图层_1"  >
<path style="stroke: none; stroke-width: 1; stroke-dasharray: none; stroke-linecap: butt; stroke-dashoffset: 0; stroke-linejoin: miter; stroke-miterlimit: 4; fill: rgb(35,24,21); fill-rule: nonzero; opacity: 1;"  transform=" translate(-384.61, -250)" d="M 368.61 257.5 h 32 c 9.65 0 9.67 -15 0 -15 h -32 c -9.65 0 -9.67 15 0 15 Z" stroke-linecap="round" />
</g>
<g transform="matrix(0.4 0 0 0.4 246.63 173.08)" id="图层_1"  >
<line style="stroke: none; stroke-width: 1; stroke-dasharray: none; stroke-linecap: butt; stroke-dashoffset: 0; stroke-linejoin: miter; stroke-miterlimit: 4; fill: rgb(35,24,21); fill-rule: nonzero; opacity: 1;"  x1="-13.844999999999999" y1="7.989999999999995" x2="13.844999999999999" y2="-7.989999999999995" />
</g>
<g transform="matrix(0.4 0 0 0.4 246.63 173.07)" id="图层_1"  >
<path style="stroke: none; stroke-width: 1; stroke-dasharray: none; stroke-linecap: butt; stroke-dashoffset: 0; stroke-linejoin: miter; stroke-miterlimit: 4; fill: rgb(35,24,21); fill-rule: nonzero; opacity: 1;"  transform=" translate(-366.57, -182.67)" d="M 356.51 197.17 l 27.69 -16 c 8.36 -4.83 0.81 -17.79 -7.57 -13 l -27.69 16 c -8.36 4.83 -0.81 17.79 7.57 13 Z" stroke-linecap="round" />
</g>
<g transform="matrix(0.4 0 0 0.4 226.92 153.37)" id="图层_1"  >
<line style="stroke: none; stroke-width: 1; stroke-dasharray: none; stroke-linecap: butt; stroke-dashoffset: 0; stroke-linejoin: miter; stroke-miterlimit: 4; fill: rgb(35,24,21); fill-rule: nonzero; opacity: 1;"  x1="-7.990000000000009" y1="13.844999999999999" x2="7.990000000000009" y2="-13.844999999999999" />
</g>
<g transform="matrix(0.4 0 0 0.4 226.91 153.37)" id="图层_1"  >
<path style="stroke: none; stroke-width: 1; stroke-dasharray: none; stroke-linecap: butt; stroke-dashoffset: 0; stroke-linejoin: miter; stroke-miterlimit: 4; fill: rgb(35,24,21); fill-rule: nonzero; opacity: 1;"  transform=" translate(-317.28, -133.43)" d="M 315.78 151.06 l 16 -27.69 c 4.84 -8.38 -8.12 -15.94 -13 -7.57 l -16 27.69 c -4.84 8.38 8.12 15.94 13 7.57 Z" stroke-linecap="round" />
</g>
<g transform="matrix(0.4 0 0 0.4 99.04 67.43)" style="" id="图层_1"  >
		<text xml:space="preserve" font-family="DINAlternate-Bold, DIN Alternate" font-size="161.72" font-style="normal" font-weight="700" style="stroke: rgb(35,24,21); stroke-width: 1; stroke-dasharray: none; stroke-linecap: butt; stroke-dashoffset: 0; stroke-linejoin: miter; stroke-miterlimit: 10; fill: rgb(255,255,255); fill-rule: nonzero; opacity: 1; white-space: pre;" ></text>
</g>
</svg>